<svg xmlns="http://www.w3.org/2000/svg" width="1530.000000" height="465.000000">
	<rect x="95.000000" y="95.000000" width="120.000000" height="80.000000" stroke="MediumAquamarine" stroke-width="1.000000" fill="gold" />
	<rect x="230.000000" y="95.000000" width="120.000000" height="80.000000" stroke="MediumAquamarine" stroke-width="1.000000" fill="gold" />
	<rect x="365.000000" y="95.000000" width="120.000000" height="80.000000" stroke="MediumAquamarine" stroke-width="1.000000" fill="gold" />
	<rect x="500.000000" y="95.000000" width="120.000000" height="80.000000" stroke="MediumAquamarine" stroke-width="1.000000" fill="gold" />
	<rect x="635.000000" y="95.000000" width="120.000000" height="80.000000" stroke="MediumAquamarine" stroke-width="1.000000" fill="gold" />
	<rect x="770.000000" y="95.000000" width="120.000000" height="80.000000" stroke="black" stroke-width="1.000000" fill="black" />
	<rect x="905.000000" y="95.000000" width="120.000000" height="80.000000" stroke="black" stroke-width="1.000000" fill="black" />
	<rect x="1040.000000" y="95.000000" width="120.000000" height="80.000000" stroke="black" stroke-width="1.000000" fill="black" />
	<rect x="1175.000000" y="95.000000" width="120.000000" height="80.000000" stroke="black" stroke-width="1.000000" fill="black" />
	<rect x="1310.000000" y="95.000000" width="120.000000" height="80.000000" stroke="black" stroke-width="1.000000" fill="black" />
	<rect x="95.000000" y="190.000000" width="120.000000" height="80.000000" stroke="black" stroke-width="1.000000" fill="black" />
	<rect x="230.000000" y="190.000000" width="120.000000" height="80.000000" stroke="black" stroke-width="1.000000" fill="black" />
	<rect x="365.000000" y="190.000000" width="120.000000" height="80.000000" stroke="black" stroke-width="1.000000" fill="black" />
	<rect x="500.000000" y="190.000000" width="120.000000" height="80.000000" stroke="black" stroke-width="1.000000" fill="black" />
	<rect x="635.000000" y="190.000000" width="120.000000" height="80.000000" stroke="black" stroke-width="1.000000" fill="black" />
	<rect x="770.000000" y="190.000000" width="120.000000" height="80.000000" stroke="black" stroke-width="1.000000" fill="black" />
	<rect x="905.000000" y="190.000000" width="120.000000" height="80.000000" stroke="black" stroke-width="1.000000" fill="black" />
	<rect x="1040.000000" y="190.000000" width="120.000000" height="80.000000" stroke="black" stroke-width="1.000000" fill="black" />
	<rect x="1175.000000" y="190.000000" width="120.000000" height="80.000000" stroke="black" stroke-width="1.000000" fill="black" />
	<rect x="1310.000000" y="190.000000" width="120.000000" height="80.000000" stroke="black" stroke-width="1.000000" fill="black" />
	<rect x="95.000000" y="285.000000" width="120.000000" height="80.000000" stroke="black" stroke-width="1.000000" fill="black" />
	<rect x="230.000000" y="285.000000" width="120.000000" height="80.000000" stroke="black" stroke-width="1.000000" fill="black" />
	<rect x="365.000000" y="285.000000" width="120.000000" height="80.000000" stroke="black" stroke-width="1.000000" fill="black" />
	<rect x="500.000000" y="285.000000" width="120.000000" height="80.000000" stroke="black" stroke-width="1.000000" fill="black" />
	<rect x="635.000000" y="285.000000" width="120.000000" height="80.000000" stroke="black" stroke-width="1.000000" fill="black" />
	<text x="690.000000" y="140.000000" font-size="14" fill="black">0</text>
	<text x="695.000000" y="107.000000" font-size="10" fill="red">0</text>
	<text x="695.000000" y="170.000000" font-size="10" fill="red">0</text>
	<text x="740.000000" y="135.000000" font-size="10" fill="red">0</text>
	<text x="640.000000" y="135.000000" font-size="10" fill="red">0</text>
	<line x1="635.000000" y1="95.000000" x2="755.000000" y2="175.000000" stroke="red" stroke-width="2" />
	<line x1="635.000000" y1="175.000000" x2="755.000000" y2="95.000000" stroke="red" stroke-width="2" />
</svg>
