<svg xmlns="http://www.w3.org/2000/svg" width="1530.000000" height="465.000000">
	<rect x="95.000000" y="95.000000" width="120.000000" height="80.000000" stroke="MediumAquamarine" stroke-width="1.000000" fill="gold" />
	<rect x="230.000000" y="95.000000" width="120.000000" height="80.000000" stroke="MediumAquamarine" stroke-width="1.000000" fill="gold" />
	<rect x="365.000000" y="95.000000" width="120.000000" height="80.000000" stroke="MediumAquamarine" stroke-width="1.000000" fill="gold" />
	<rect x="500.000000" y="95.000000" width="120.000000" height="80.000000" stroke="MediumAquamarine" stroke-width="1.000000" fill="gold" />
	<rect x="635.000000" y="95.000000" width="120.000000" height="80.000000" stroke="MediumAquamarine" stroke-width="1.000000" fill="gold" />
	<rect x="770.000000" y="95.000000" width="120.000000" height="80.000000" stroke="black" stroke-width="1.000000" fill="black" />
	<rect x="905.000000" y="95.000000" width="120.000000" height="80.000000" stroke="black" stroke-width="1.000000" fill="black" />
	<rect x="1040.000000" y="95.000000" width="120.000000" height="80.000000" stroke="black" stroke-width="1.000000" fill="black" />
	<rect x="1175.000000" y="95.000000" width="120.000000" height="80.000000" stroke="black" stroke-width="1.000000" fill="black" />
	<rect x="1310.000000" y="95.000000" width="120.000000" height="80.000000" stroke="black" stroke-width="1.000000" fill="black" />
	<rect x="95.000000" y="190.000000" width="120.000000" height="80.000000" stroke="black" stroke-width="1.000000" fill="black" />
	<rect x="230.000000" y="190.000000" width="120.000000" height="80.000000" stroke="black" stroke-width="1.000000" fill="black" />
	<rect x="365.000000" y="190.000000" width="120.000000" height="80.000000" stroke="black" stroke-width="1.000000" fill="black" />
	<rect x="500.000000" y="190.000000" width="120.000000" height="80.000000" stroke="black" stroke-width="1.000000" fill="black" />
	<rect x="635.000000" y="190.000000" width="120.000000" height="80.000000" stroke="black" stroke-width="1.000000" fill="black" />
	<rect x="770.000000" y="190.000000" width="120.000000" height="80.000000" stroke="black" stroke-width="1.000000" fill="black" />
	<rect x="905.000000" y="190.000000" width="120.000000" height="80.000000" stroke="black" stroke-width="1.000000" fill="black" />
	<rect x="1040.000000" y="190.000000" width="120.000000" height="80.000000" stroke="black" stroke-width="1.000000" fill="black" />
	<rect x="1175.000000" y="190.000000" width="120.000000" height="80.000000" stroke="black" stroke-width="1.000000" fill="black" />
	<rect x="1310.000000" y="190.000000" width="120.000000" height="80.000000" stroke="black" stroke-width="1.000000" fill="black" />
	<rect x="95.000000" y="285.000000" width="120.000000" height="80.000000" stroke="black" stroke-width="1.000000" fill="black" />
	<rect x="230.000000" y="285.000000" width="120.000000" height="80.000000" stroke="black" stroke-width="1.000000" fill="black" />
	<rect x="365.000000" y="285.000000" width="120.000000" height="80.000000" stroke="black" stroke-width="1.000000" fill="black" />
	<rect x="500.000000" y="285.000000" width="120.000000" height="80.000000" stroke="black" stroke-width="1.000000" fill="black" />
	<rect x="635.000000" y="285.000000" width="120.000000" height="80.000000" stroke="black" stroke-width="1.000000" fill="black" />
</svg>
