<svg xmlns="http://www.w3.org/2000/svg" width="1530.000000" height="1130.000000">
	<rect x="95.000000" y="95.000000" width="120.000000" height="80.000000" stroke="Moccasin" stroke-width="1.000000" fill="Olive" />
	<text x="96.000000" y="106.000000" font-size="10" font-weight="bold" fill="white">b01.1</text>
	<rect x="230.000000" y="95.000000" width="120.000000" height="80.000000" stroke="Moccasin" stroke-width="1.000000" fill="Olive" />
	<text x="231.000000" y="106.000000" font-size="10" font-weight="bold" fill="white">b01.2</text>
	<rect x="365.000000" y="95.000000" width="120.000000" height="80.000000" stroke="Moccasin" stroke-width="1.000000" fill="Olive" />
	<text x="366.000000" y="106.000000" font-size="10" font-weight="bold" fill="white">b01.3</text>
	<rect x="500.000000" y="95.000000" width="120.000000" height="80.000000" stroke="Moccasin" stroke-width="1.000000" fill="Olive" />
	<text x="501.000000" y="106.000000" font-size="10" font-weight="bold" fill="white">b01.4</text>
	<rect x="635.000000" y="95.000000" width="120.000000" height="80.000000" stroke="Moccasin" stroke-width="1.000000" fill="Olive" />
	<text x="636.000000" y="106.000000" font-size="10" font-weight="bold" fill="white">b01.5</text>
	<rect x="770.000000" y="95.000000" width="120.000000" height="80.000000" stroke="Moccasin" stroke-width="1.000000" fill="Olive" />
	<text x="771.000000" y="106.000000" font-size="10" font-weight="bold" fill="white">b01.6</text>
	<rect x="905.000000" y="95.000000" width="120.000000" height="80.000000" stroke="Moccasin" stroke-width="1.000000" fill="Olive" />
	<text x="906.000000" y="106.000000" font-size="10" font-weight="bold" fill="white">b01.7</text>
	<rect x="1040.000000" y="95.000000" width="120.000000" height="80.000000" stroke="Moccasin" stroke-width="1.000000" fill="Olive" />
	<text x="1041.000000" y="106.000000" font-size="10" font-weight="bold" fill="white">b01.8</text>
	<rect x="1175.000000" y="95.000000" width="120.000000" height="80.000000" stroke="Moccasin" stroke-width="1.000000" fill="Olive" />
	<text x="1176.000000" y="106.000000" font-size="10" font-weight="bold" fill="white">b01.9</text>
	<rect x="1310.000000" y="95.000000" width="120.000000" height="80.000000" stroke="Moccasin" stroke-width="1.000000" fill="Olive" />
	<text x="1311.000000" y="106.000000" font-size="10" font-weight="bold" fill="white">b01.10</text>
	<rect x="95.000000" y="190.000000" width="120.000000" height="80.000000" stroke="Moccasin" stroke-width="1.000000" fill="Olive" />
	<text x="96.000000" y="201.000000" font-size="10" font-weight="bold" fill="white">b02.1</text>
	<rect x="230.000000" y="190.000000" width="120.000000" height="80.000000" stroke="Moccasin" stroke-width="1.000000" fill="Olive" />
	<text x="231.000000" y="201.000000" font-size="10" font-weight="bold" fill="white">b02.2</text>
	<rect x="365.000000" y="190.000000" width="120.000000" height="80.000000" stroke="Moccasin" stroke-width="1.000000" fill="Olive" />
	<text x="366.000000" y="201.000000" font-size="10" font-weight="bold" fill="white">b02.3</text>
	<rect x="500.000000" y="190.000000" width="120.000000" height="80.000000" stroke="Moccasin" stroke-width="1.000000" fill="Olive" />
	<text x="501.000000" y="201.000000" font-size="10" font-weight="bold" fill="white">b02.4</text>
	<rect x="635.000000" y="190.000000" width="120.000000" height="80.000000" stroke="Moccasin" stroke-width="1.000000" fill="Olive" />
	<text x="636.000000" y="201.000000" font-size="10" font-weight="bold" fill="white">b02.5</text>
	<rect x="770.000000" y="190.000000" width="120.000000" height="80.000000" stroke="Moccasin" stroke-width="1.000000" fill="Olive" />
	<text x="771.000000" y="201.000000" font-size="10" font-weight="bold" fill="white">b02.6</text>
	<rect x="905.000000" y="190.000000" width="120.000000" height="80.000000" stroke="Moccasin" stroke-width="1.000000" fill="Olive" />
	<text x="906.000000" y="201.000000" font-size="10" font-weight="bold" fill="white">b02.7</text>
	<rect x="1040.000000" y="190.000000" width="120.000000" height="80.000000" stroke="Moccasin" stroke-width="1.000000" fill="Olive" />
	<text x="1041.000000" y="201.000000" font-size="10" font-weight="bold" fill="white">b02.8</text>
	<rect x="1175.000000" y="190.000000" width="120.000000" height="80.000000" stroke="Moccasin" stroke-width="1.000000" fill="Olive" />
	<text x="1176.000000" y="201.000000" font-size="10" font-weight="bold" fill="white">b02.9</text>
	<rect x="1310.000000" y="190.000000" width="120.000000" height="80.000000" stroke="Moccasin" stroke-width="1.000000" fill="Olive" />
	<text x="1311.000000" y="201.000000" font-size="10" font-weight="bold" fill="white">b02.10</text>
	<rect x="95.000000" y="285.000000" width="120.000000" height="80.000000" stroke="Moccasin" stroke-width="1.000000" fill="Olive" />
	<text x="96.000000" y="296.000000" font-size="10" font-weight="bold" fill="white">b03.1</text>
	<rect x="230.000000" y="285.000000" width="120.000000" height="80.000000" stroke="Moccasin" stroke-width="1.000000" fill="Olive" />
	<text x="231.000000" y="296.000000" font-size="10" font-weight="bold" fill="white">b03.2</text>
	<rect x="365.000000" y="285.000000" width="120.000000" height="80.000000" stroke="Moccasin" stroke-width="1.000000" fill="Olive" />
	<text x="366.000000" y="296.000000" font-size="10" font-weight="bold" fill="white">b03.3</text>
	<rect x="500.000000" y="285.000000" width="120.000000" height="80.000000" stroke="Moccasin" stroke-width="1.000000" fill="Olive" />
	<text x="501.000000" y="296.000000" font-size="10" font-weight="bold" fill="white">b03.4</text>
	<rect x="635.000000" y="285.000000" width="120.000000" height="80.000000" stroke="Moccasin" stroke-width="1.000000" fill="Olive" />
	<text x="636.000000" y="296.000000" font-size="10" font-weight="bold" fill="white">b03.5</text>
	<rect x="770.000000" y="285.000000" width="120.000000" height="80.000000" stroke="Moccasin" stroke-width="1.000000" fill="Olive" />
	<text x="771.000000" y="296.000000" font-size="10" font-weight="bold" fill="white">b03.6</text>
	<rect x="905.000000" y="285.000000" width="120.000000" height="80.000000" stroke="Moccasin" stroke-width="1.000000" fill="Olive" />
	<text x="906.000000" y="296.000000" font-size="10" font-weight="bold" fill="white">b03.7</text>
	<rect x="1040.000000" y="285.000000" width="120.000000" height="80.000000" stroke="Moccasin" stroke-width="1.000000" fill="Olive" />
	<text x="1041.000000" y="296.000000" font-size="10" font-weight="bold" fill="white">b03.8</text>
	<rect x="1175.000000" y="285.000000" width="120.000000" height="80.000000" stroke="Moccasin" stroke-width="1.000000" fill="Olive" />
	<text x="1176.000000" y="296.000000" font-size="10" font-weight="bold" fill="white">b03.9</text>
	<rect x="1310.000000" y="285.000000" width="120.000000" height="80.000000" stroke="Moccasin" stroke-width="1.000000" fill="Olive" />
	<text x="1311.000000" y="296.000000" font-size="10" font-weight="bold" fill="white">b03.10</text>
	<rect x="95.000000" y="380.000000" width="120.000000" height="80.000000" stroke="Moccasin" stroke-width="1.000000" fill="Olive" />
	<text x="96.000000" y="391.000000" font-size="10" font-weight="bold" fill="white">b04.1</text>
	<rect x="230.000000" y="380.000000" width="120.000000" height="80.000000" stroke="Moccasin" stroke-width="1.000000" fill="Olive" />
	<text x="231.000000" y="391.000000" font-size="10" font-weight="bold" fill="white">b04.2</text>
	<rect x="365.000000" y="380.000000" width="120.000000" height="80.000000" stroke="Moccasin" stroke-width="1.000000" fill="Olive" />
	<text x="366.000000" y="391.000000" font-size="10" font-weight="bold" fill="white">b04.3</text>
	<rect x="500.000000" y="380.000000" width="120.000000" height="80.000000" stroke="Moccasin" stroke-width="1.000000" fill="Olive" />
	<text x="501.000000" y="391.000000" font-size="10" font-weight="bold" fill="white">b04.4</text>
	<rect x="635.000000" y="380.000000" width="120.000000" height="80.000000" stroke="Moccasin" stroke-width="1.000000" fill="Olive" />
	<text x="636.000000" y="391.000000" font-size="10" font-weight="bold" fill="white">b04.5</text>
	<rect x="770.000000" y="380.000000" width="120.000000" height="80.000000" stroke="Moccasin" stroke-width="1.000000" fill="Olive" />
	<text x="771.000000" y="391.000000" font-size="10" font-weight="bold" fill="white">b04.6</text>
	<rect x="905.000000" y="380.000000" width="120.000000" height="80.000000" stroke="Moccasin" stroke-width="1.000000" fill="Olive" />
	<text x="906.000000" y="391.000000" font-size="10" font-weight="bold" fill="white">b04.7</text>
	<rect x="1040.000000" y="380.000000" width="120.000000" height="80.000000" stroke="Moccasin" stroke-width="1.000000" fill="Olive" />
	<text x="1041.000000" y="391.000000" font-size="10" font-weight="bold" fill="white">b04.8</text>
	<rect x="1175.000000" y="380.000000" width="120.000000" height="80.000000" stroke="Moccasin" stroke-width="1.000000" fill="Olive" />
	<text x="1176.000000" y="391.000000" font-size="10" font-weight="bold" fill="white">b04.9</text>
	<rect x="1310.000000" y="380.000000" width="120.000000" height="80.000000" stroke="Moccasin" stroke-width="1.000000" fill="Olive" />
	<text x="1311.000000" y="391.000000" font-size="10" font-weight="bold" fill="white">b04.10</text>
	<rect x="95.000000" y="475.000000" width="120.000000" height="80.000000" stroke="Moccasin" stroke-width="1.000000" fill="Olive" />
	<text x="96.000000" y="486.000000" font-size="10" font-weight="bold" fill="white">b05.1</text>
	<rect x="230.000000" y="475.000000" width="120.000000" height="80.000000" stroke="Moccasin" stroke-width="1.000000" fill="Olive" />
	<text x="231.000000" y="486.000000" font-size="10" font-weight="bold" fill="white">b05.2</text>
	<rect x="365.000000" y="475.000000" width="120.000000" height="80.000000" stroke="Moccasin" stroke-width="1.000000" fill="Olive" />
	<text x="366.000000" y="486.000000" font-size="10" font-weight="bold" fill="white">b05.3</text>
	<rect x="500.000000" y="475.000000" width="120.000000" height="80.000000" stroke="Moccasin" stroke-width="1.000000" fill="Olive" />
	<text x="501.000000" y="486.000000" font-size="10" font-weight="bold" fill="white">b05.4</text>
	<rect x="635.000000" y="475.000000" width="120.000000" height="80.000000" stroke="Moccasin" stroke-width="1.000000" fill="Olive" />
	<text x="636.000000" y="486.000000" font-size="10" font-weight="bold" fill="white">b05.5</text>
	<rect x="770.000000" y="475.000000" width="120.000000" height="80.000000" stroke="Moccasin" stroke-width="1.000000" fill="Olive" />
	<text x="771.000000" y="486.000000" font-size="10" font-weight="bold" fill="white">b05.6</text>
	<rect x="905.000000" y="475.000000" width="120.000000" height="80.000000" stroke="Moccasin" stroke-width="1.000000" fill="Olive" />
	<text x="906.000000" y="486.000000" font-size="10" font-weight="bold" fill="white">b05.7</text>
	<rect x="1040.000000" y="475.000000" width="120.000000" height="80.000000" stroke="Moccasin" stroke-width="1.000000" fill="Olive" />
	<text x="1041.000000" y="486.000000" font-size="10" font-weight="bold" fill="white">b05.8</text>
	<rect x="1175.000000" y="475.000000" width="120.000000" height="80.000000" stroke="Moccasin" stroke-width="1.000000" fill="Olive" />
	<text x="1176.000000" y="486.000000" font-size="10" font-weight="bold" fill="white">b05.9</text>
	<rect x="1310.000000" y="475.000000" width="120.000000" height="80.000000" stroke="Moccasin" stroke-width="1.000000" fill="Olive" />
	<text x="1311.000000" y="486.000000" font-size="10" font-weight="bold" fill="white">b05.10</text>
	<rect x="95.000000" y="570.000000" width="120.000000" height="80.000000" stroke="Moccasin" stroke-width="1.000000" fill="Olive" />
	<text x="96.000000" y="581.000000" font-size="10" font-weight="bold" fill="white">b06.1</text>
	<rect x="230.000000" y="570.000000" width="120.000000" height="80.000000" stroke="Moccasin" stroke-width="1.000000" fill="Olive" />
	<text x="231.000000" y="581.000000" font-size="10" font-weight="bold" fill="white">b06.2</text>
	<rect x="365.000000" y="570.000000" width="120.000000" height="80.000000" stroke="Moccasin" stroke-width="1.000000" fill="Olive" />
	<text x="366.000000" y="581.000000" font-size="10" font-weight="bold" fill="white">b06.3</text>
	<rect x="500.000000" y="570.000000" width="120.000000" height="80.000000" stroke="Moccasin" stroke-width="1.000000" fill="Olive" />
	<text x="501.000000" y="581.000000" font-size="10" font-weight="bold" fill="white">b06.4</text>
	<rect x="635.000000" y="570.000000" width="120.000000" height="80.000000" stroke="Moccasin" stroke-width="1.000000" fill="Olive" />
	<text x="636.000000" y="581.000000" font-size="10" font-weight="bold" fill="white">b06.5</text>
	<rect x="770.000000" y="570.000000" width="120.000000" height="80.000000" stroke="Moccasin" stroke-width="1.000000" fill="Olive" />
	<text x="771.000000" y="581.000000" font-size="10" font-weight="bold" fill="white">b06.6</text>
	<rect x="905.000000" y="570.000000" width="120.000000" height="80.000000" stroke="Moccasin" stroke-width="1.000000" fill="Olive" />
	<text x="906.000000" y="581.000000" font-size="10" font-weight="bold" fill="white">b06.7</text>
	<rect x="1040.000000" y="570.000000" width="120.000000" height="80.000000" stroke="Moccasin" stroke-width="1.000000" fill="Olive" />
	<text x="1041.000000" y="581.000000" font-size="10" font-weight="bold" fill="white">b06.8</text>
	<rect x="1175.000000" y="570.000000" width="120.000000" height="80.000000" stroke="Moccasin" stroke-width="1.000000" fill="Olive" />
	<text x="1176.000000" y="581.000000" font-size="10" font-weight="bold" fill="white">b06.9</text>
	<rect x="1310.000000" y="570.000000" width="120.000000" height="80.000000" stroke="Moccasin" stroke-width="1.000000" fill="Olive" />
	<text x="1311.000000" y="581.000000" font-size="10" font-weight="bold" fill="white">b06.10</text>
	<rect x="95.000000" y="665.000000" width="120.000000" height="80.000000" stroke="Moccasin" stroke-width="1.000000" fill="Olive" />
	<text x="96.000000" y="676.000000" font-size="10" font-weight="bold" fill="white">b07.1</text>
	<rect x="230.000000" y="665.000000" width="120.000000" height="80.000000" stroke="Moccasin" stroke-width="1.000000" fill="Olive" />
	<text x="231.000000" y="676.000000" font-size="10" font-weight="bold" fill="white">b07.2</text>
	<rect x="365.000000" y="665.000000" width="120.000000" height="80.000000" stroke="Moccasin" stroke-width="1.000000" fill="Olive" />
	<text x="366.000000" y="676.000000" font-size="10" font-weight="bold" fill="white">b07.3</text>
	<rect x="500.000000" y="665.000000" width="120.000000" height="80.000000" stroke="Moccasin" stroke-width="1.000000" fill="Olive" />
	<text x="501.000000" y="676.000000" font-size="10" font-weight="bold" fill="white">b07.4</text>
	<rect x="635.000000" y="665.000000" width="120.000000" height="80.000000" stroke="Moccasin" stroke-width="1.000000" fill="Olive" />
	<text x="636.000000" y="676.000000" font-size="10" font-weight="bold" fill="white">b07.5</text>
	<rect x="770.000000" y="665.000000" width="120.000000" height="80.000000" stroke="Moccasin" stroke-width="1.000000" fill="Olive" />
	<text x="771.000000" y="676.000000" font-size="10" font-weight="bold" fill="white">b07.6</text>
	<rect x="905.000000" y="665.000000" width="120.000000" height="80.000000" stroke="Moccasin" stroke-width="1.000000" fill="Olive" />
	<text x="906.000000" y="676.000000" font-size="10" font-weight="bold" fill="white">b07.7</text>
	<rect x="1040.000000" y="665.000000" width="120.000000" height="80.000000" stroke="Moccasin" stroke-width="1.000000" fill="Olive" />
	<text x="1041.000000" y="676.000000" font-size="10" font-weight="bold" fill="white">b07.8</text>
	<rect x="1175.000000" y="665.000000" width="120.000000" height="80.000000" stroke="Moccasin" stroke-width="1.000000" fill="Olive" />
	<text x="1176.000000" y="676.000000" font-size="10" font-weight="bold" fill="white">b07.9</text>
	<rect x="1310.000000" y="665.000000" width="120.000000" height="80.000000" stroke="Moccasin" stroke-width="1.000000" fill="Olive" />
	<text x="1311.000000" y="676.000000" font-size="10" font-weight="bold" fill="white">b07.10</text>
	<rect x="95.000000" y="760.000000" width="120.000000" height="80.000000" stroke="Moccasin" stroke-width="1.000000" fill="Olive" />
	<text x="96.000000" y="771.000000" font-size="10" font-weight="bold" fill="white">b08.1</text>
	<rect x="230.000000" y="760.000000" width="120.000000" height="80.000000" stroke="Moccasin" stroke-width="1.000000" fill="Olive" />
	<text x="231.000000" y="771.000000" font-size="10" font-weight="bold" fill="white">b08.2</text>
	<rect x="365.000000" y="760.000000" width="120.000000" height="80.000000" stroke="Moccasin" stroke-width="1.000000" fill="Olive" />
	<text x="366.000000" y="771.000000" font-size="10" font-weight="bold" fill="white">b08.3</text>
	<rect x="500.000000" y="760.000000" width="120.000000" height="80.000000" stroke="Moccasin" stroke-width="1.000000" fill="Olive" />
	<text x="501.000000" y="771.000000" font-size="10" font-weight="bold" fill="white">b08.4</text>
	<rect x="635.000000" y="760.000000" width="120.000000" height="80.000000" stroke="Moccasin" stroke-width="1.000000" fill="Olive" />
	<text x="636.000000" y="771.000000" font-size="10" font-weight="bold" fill="white">b08.5</text>
	<rect x="770.000000" y="760.000000" width="120.000000" height="80.000000" stroke="Moccasin" stroke-width="1.000000" fill="Olive" />
	<text x="771.000000" y="771.000000" font-size="10" font-weight="bold" fill="white">b08.6</text>
	<rect x="905.000000" y="760.000000" width="120.000000" height="80.000000" stroke="Moccasin" stroke-width="1.000000" fill="Olive" />
	<text x="906.000000" y="771.000000" font-size="10" font-weight="bold" fill="white">b08.7</text>
	<rect x="1040.000000" y="760.000000" width="120.000000" height="80.000000" stroke="Moccasin" stroke-width="1.000000" fill="Olive" />
	<text x="1041.000000" y="771.000000" font-size="10" font-weight="bold" fill="white">b08.8</text>
	<rect x="1175.000000" y="760.000000" width="120.000000" height="80.000000" stroke="Moccasin" stroke-width="1.000000" fill="Olive" />
	<text x="1176.000000" y="771.000000" font-size="10" font-weight="bold" fill="white">b08.9</text>
	<rect x="1310.000000" y="760.000000" width="120.000000" height="80.000000" stroke="Moccasin" stroke-width="1.000000" fill="Olive" />
	<text x="1311.000000" y="771.000000" font-size="10" font-weight="bold" fill="white">b08.10</text>
	<rect x="95.000000" y="855.000000" width="120.000000" height="80.000000" stroke="Moccasin" stroke-width="1.000000" fill="Olive" />
	<text x="96.000000" y="866.000000" font-size="10" font-weight="bold" fill="white">b09.1</text>
	<rect x="230.000000" y="855.000000" width="120.000000" height="80.000000" stroke="Moccasin" stroke-width="1.000000" fill="Olive" />
	<text x="231.000000" y="866.000000" font-size="10" font-weight="bold" fill="white">b09.2</text>
	<rect x="365.000000" y="855.000000" width="120.000000" height="80.000000" stroke="Moccasin" stroke-width="1.000000" fill="Olive" />
	<text x="366.000000" y="866.000000" font-size="10" font-weight="bold" fill="white">b09.3</text>
	<rect x="500.000000" y="855.000000" width="120.000000" height="80.000000" stroke="Moccasin" stroke-width="1.000000" fill="Olive" />
	<text x="501.000000" y="866.000000" font-size="10" font-weight="bold" fill="white">b09.4</text>
	<rect x="635.000000" y="855.000000" width="120.000000" height="80.000000" stroke="Moccasin" stroke-width="1.000000" fill="Olive" />
	<text x="636.000000" y="866.000000" font-size="10" font-weight="bold" fill="white">b09.5</text>
	<rect x="770.000000" y="855.000000" width="120.000000" height="80.000000" stroke="Moccasin" stroke-width="1.000000" fill="Olive" />
	<text x="771.000000" y="866.000000" font-size="10" font-weight="bold" fill="white">b09.6</text>
	<rect x="905.000000" y="855.000000" width="120.000000" height="80.000000" stroke="Moccasin" stroke-width="1.000000" fill="Olive" />
	<text x="906.000000" y="866.000000" font-size="10" font-weight="bold" fill="white">b09.7</text>
	<rect x="1040.000000" y="855.000000" width="120.000000" height="80.000000" stroke="Moccasin" stroke-width="1.000000" fill="Olive" />
	<text x="1041.000000" y="866.000000" font-size="10" font-weight="bold" fill="white">b09.8</text>
	<rect x="1175.000000" y="855.000000" width="120.000000" height="80.000000" stroke="Moccasin" stroke-width="1.000000" fill="Olive" />
	<text x="1176.000000" y="866.000000" font-size="10" font-weight="bold" fill="white">b09.9</text>
	<rect x="1310.000000" y="855.000000" width="120.000000" height="80.000000" stroke="Moccasin" stroke-width="1.000000" fill="Olive" />
	<text x="1311.000000" y="866.000000" font-size="10" font-weight="bold" fill="white">b09.10</text>
	<rect x="95.000000" y="950.000000" width="120.000000" height="80.000000" stroke="Moccasin" stroke-width="1.000000" fill="Olive" />
	<text x="96.000000" y="961.000000" font-size="10" font-weight="bold" fill="white">b010.1</text>
	<rect x="230.000000" y="950.000000" width="120.000000" height="80.000000" stroke="Moccasin" stroke-width="1.000000" fill="Olive" />
	<text x="231.000000" y="961.000000" font-size="10" font-weight="bold" fill="white">b010.2</text>
	<rect x="365.000000" y="950.000000" width="120.000000" height="80.000000" stroke="Moccasin" stroke-width="1.000000" fill="Olive" />
	<text x="366.000000" y="961.000000" font-size="10" font-weight="bold" fill="white">b010.3</text>
	<rect x="500.000000" y="950.000000" width="120.000000" height="80.000000" stroke="Moccasin" stroke-width="1.000000" fill="Olive" />
	<text x="501.000000" y="961.000000" font-size="10" font-weight="bold" fill="white">b010.4</text>
	<rect x="635.000000" y="950.000000" width="120.000000" height="80.000000" stroke="Moccasin" stroke-width="1.000000" fill="Olive" />
	<text x="636.000000" y="961.000000" font-size="10" font-weight="bold" fill="white">b010.5</text>
	<rect x="770.000000" y="950.000000" width="120.000000" height="80.000000" stroke="Moccasin" stroke-width="1.000000" fill="Olive" />
	<text x="771.000000" y="961.000000" font-size="10" font-weight="bold" fill="white">b010.6</text>
	<rect x="905.000000" y="950.000000" width="120.000000" height="80.000000" stroke="Moccasin" stroke-width="1.000000" fill="Olive" />
	<text x="906.000000" y="961.000000" font-size="10" font-weight="bold" fill="white">b010.7</text>
	<rect x="1040.000000" y="950.000000" width="120.000000" height="80.000000" stroke="Moccasin" stroke-width="1.000000" fill="Olive" />
	<text x="1041.000000" y="961.000000" font-size="10" font-weight="bold" fill="white">b010.8</text>
	<rect x="1175.000000" y="950.000000" width="120.000000" height="80.000000" stroke="Moccasin" stroke-width="1.000000" fill="Olive" />
	<text x="1176.000000" y="961.000000" font-size="10" font-weight="bold" fill="white">b010.9</text>
	<rect x="1310.000000" y="950.000000" width="120.000000" height="80.000000" stroke="Moccasin" stroke-width="1.000000" fill="Olive" />
	<text x="1311.000000" y="961.000000" font-size="10" font-weight="bold" fill="white">b010.10</text>
</svg>
